<?xml version="1.0" encoding="iso-8859-1"?>
<!-- Generator: Adobe Illustrator 19.0.0, SVG Export Plug-In . SVG Version: 6.00 Build 0)  -->
<svg xmlns="http://www.w3.org/2000/svg" xmlns:xlink="http://www.w3.org/1999/xlink" version="1.1" id="Capa_1" x="0px" y="0px" viewBox="0 0 501.8 501.8" style="enable-background:new 0 0 501.8 501.8;" xml:space="preserve" width="512px" height="512px">
<g>
	<g>
		<path d="M135,139.251c-4.4,0-8,3.6-8,8v4.4c0.1,5.2-4,9.4-9.2,9.6h-0.1c-5.3,0-9.6-4.3-9.7-9.6v-4.4c0-4.4-3.6-8-8-8    c-4.4,0-8,3.6-8,8v4.4c0.1,6.8,2.8,13.3,7.7,18.1c4.7,4.8,11.2,7.5,17.9,7.5c14.1,0,25.4-11.4,25.4-25.6v-4.4    C143,142.851,139.4,139.251,135,139.251z" fill="#006DF0"/>
	</g>
</g>
<g>
	<g>
		<path d="M223,139.351c-4.4,0-8,3.6-8,8v4.4c0,5.2-4.3,9.5-9.5,9.5s-9.5-4.3-9.5-9.5v-4.4c0-4.4-3.6-8-8-8c-4.4,0-8,3.6-8,8v4.4    c0,14.1,11.5,25.5,25.6,25.5c14.1,0,25.5-11.5,25.4-25.5v-4.4C231,142.951,227.4,139.351,223,139.351z" fill="#006DF0"/>
	</g>
</g>
<g>
	<g>
		<path d="M384.7,264.751c-36.7-0.1-71.3,17-93.4,46.3c-12.5-8-27-12.3-41.8-12.3H207v-14c18.3-8.2,34-21.1,45.5-37.5    c11.9-16.8,18.8-36.6,19.9-57.1c12.8-3.4,22.9-14.8,22.9-27.5s-10.4-24-22.4-27.5v-46.4h16.4c4.4,0,8-3.6,8-8    c-0.1-43-34.9-77.9-78-78h-72c-11.4-0.1-22.3,4.4-30.4,12.5c-2.2,2.2-4.2,4.6-5.8,7.3c-26.4,1.2-41.3,15.9-49.2,28.4    c-5.5,8.7-9.2,18.4-10.9,28.5c0,0.4-0.1,0.7,0,1.1v54.2c-5.8,0.9-11.1,3.7-15.2,7.9c-11.2,11.1-11.2,29.2-0.1,40.4    c4.2,4.2,9.6,7,15.5,8c2.9,42.6,30.1,79.7,69.8,95.5v12.2H78.5c-43.2,0-78.5,35.6-78.5,78.7v97.9c0.1,4.5,3.6,8.2,8.2,8.4h314.2    c1-0.1,2.1-0.3,3-0.8c18,10.6,38.5,16.1,59.3,16.1c64.6,0,117.1-52.6,117.1-117.1S449.3,264.751,384.7,264.751z M273,152.351    c3,2.4,6.5,6.2,6.5,10.2s-3.5,7.8-6.5,10.2V152.351z M51,174.351c-5-1.9-7.6-6.4-7.6-11.5c0-3.3,1.3-6.5,3.7-8.9    c1.1-1.2,2.4-2.1,3.9-2.7V174.351z M123.1,33.851c1.3-2.8,3.1-5.2,5.2-7.3c5.1-5,11.9-7.9,19.1-7.8h72c31.2-0.2,57.6,23,61.4,54    H147.4c-0.3,0-0.5-0.1-0.8-0.1c-0.3,0-0.5-0.1-0.8-0.1c-14.3-0.8-25.4-12.6-25.4-26.9C120.4,41.551,121.3,37.551,123.1,33.851z     M67,81.151c1-4.6,7.2-36.2,37.9-41.9c-3,19.5,7.8,38.5,26.1,46c-24.4,26-52,29.3-64,29.2V81.151z M94.8,250.551    c-17.9-17.8-27.9-42-27.8-67.2v-52.6c16.8,0,52.7-5,82.2-42H257v93.5c0,0.3-0.2,0.6-0.2,0.9s0,0.6,0,0.8    c-0.4,39.3-24.8,74.3-61.6,88.2c-10.6,4-21.9,6.1-33.3,6C136.7,278.251,112.6,268.251,94.8,250.551z M154,467.751H16v-90.3    c0.1-33.1,26-60.4,59-62.2v21.5c-7.4,1.5-14.3,5.2-19.5,10.7c-7.4,7.4-11.6,17.5-11.5,28v44.1c0,4.4,3.2,8.2,7.6,8.2h12.6    c4.4,0,8-3.6,8-8c0-4.4-3.6-8-8-8H60v-36.3c-0.1-6.2,2.3-12.3,6.7-16.7c4.2-4.4,10-6.9,16.1-7h0.3c13.1,0.1,23.7,10.6,23.9,23.7    v36.3h-8.1c-4.4,0-8,3.6-8,8c0,4.4,3.6,8,8,8h15.8c4.5-0.1,8.2-3.7,8.3-8.2v-44.1c-0.1-18.9-13.5-35.1-32-38.8v-21.9h34.5    l28.5,30.8V467.751z M137,304.051v-12.6c8.2,1.9,16.5,2.9,24.9,2.9c9.8,0,19.6-1.3,29.1-3.9v13.3l-28.4,27.2L137,304.051z     M170,467.751L170,467.751v-122l32.1-31H217v42.2c-14.3,3.6-24.4,16.5-24.5,31.3c0.1,17.8,14.7,32.1,32.4,32    c17.8-0.1,32.1-14.7,32-32.4c-0.1-8.4-3.4-16.4-9.3-22.4c-4.1-4-9.1-6.9-14.7-8.5v-42.2h16.5c11.7,0,23.2,3.4,33.1,9.7    c-26.2,47.2-17.1,106.3,22.3,143.3H170z M224.6,371.951c4.3,0,8.5,1.7,11.6,4.8c6.3,6.4,6.3,16.6,0,23c-6.4,6.4-16.7,6.4-23.1,0    c-6.4-6.4-6.4-16.7,0-23.1C216.1,373.651,220.3,371.951,224.6,371.951z M384.7,482.951c-55.8,0-101.1-45.2-101.1-101    c0-19.6,5.7-38.8,16.4-55.2c30.5-46.8,93.1-60,139.8-29.5c46.8,30.5,60,93.1,29.5,139.8    C450.8,465.651,418.9,482.951,384.7,482.951z" fill="#006DF0"/>
	</g>
</g>
<g>
	<g>
		<path d="M435.7,361.751H403l27.4-27.3l1.7,1.8c3.1,3.1,8.2,3.1,11.3,0c3.1-3.1,3.1-8.2,0-11.3l-14.7-14.7    c-3.1-3.1-8.2-3.1-11.3,0.1c-3.1,3.1-3.1,8.1,0,11.2l1.7,1.6l-38.8,38.6h-48.6c-4.4,0.1-7.8,3.8-7.7,8.2v35.5    c-0.1,27.7,22.3,50.2,50,50.3c0.1,0,0.1,0,0.2,0h19.1c27.8,0,50.8-22.5,50.8-50.3v-35.5    C443.9,365.451,440.2,361.851,435.7,361.751z M393.2,439.751h-19.1c-18.8,0-34.1-15.2-34.2-34.1c0-0.1,0-0.1,0-0.2v-1.7h88v1.7    h0.1C428,424.451,412.2,439.751,393.2,439.751z M428,387.751h-88v-10h88V387.751z" fill="#006DF0"/>
	</g>
</g>
<g>
</g>
<g>
</g>
<g>
</g>
<g>
</g>
<g>
</g>
<g>
</g>
<g>
</g>
<g>
</g>
<g>
</g>
<g>
</g>
<g>
</g>
<g>
</g>
<g>
</g>
<g>
</g>
<g>
</g>
</svg>
